<svg width="34" height="28" viewBox="0 0 34 28" fill="none" xmlns="http://www.w3.org/2000/svg">
<path d="M30.8489 23.513C28.5106 26.048 24.9723 27.333 20.3339 27.333L18.6673 27.333L18.6673 22.6347L20.0073 22.3663C22.2906 21.9097 23.8789 21.0113 24.7289 19.693C25.1724 18.9828 25.424 18.1696 25.4589 17.333L20.3339 17.333C19.8919 17.333 19.468 17.1574 19.1554 16.8449C18.8429 16.5323 18.6673 16.1084 18.6673 15.6663L18.6673 3.99967C18.6673 2.16134 20.1623 0.666341 22.0006 0.666341L32.0006 0.666342C32.4426 0.666342 32.8665 0.841936 33.1791 1.1545C33.4917 1.46706 33.6673 1.89098 33.6673 2.33301L33.6673 10.6663L33.6623 15.5313C33.6773 15.7163 33.9939 20.0997 30.8489 23.513ZM3.66725 0.666339L13.6673 0.66634C14.1093 0.66634 14.5332 0.841934 14.8458 1.15449C15.1583 1.46705 15.3339 1.89098 15.3339 2.33301L15.3339 10.6663L15.3289 15.5313C15.3439 15.7163 15.6606 20.0997 12.5156 23.513C10.1773 26.048 6.63892 27.333 2.00059 27.333L0.33392 27.333L0.33392 22.6347L1.67392 22.3663C3.95725 21.9097 5.54558 21.0113 6.39558 19.693C6.8391 18.9828 7.09064 18.1696 7.12559 17.333L2.00059 17.333C1.55856 17.333 1.13463 17.1574 0.822072 16.8448C0.509515 16.5323 0.333921 16.1084 0.333921 15.6663L0.333922 3.99967C0.333922 2.16134 1.82892 0.666339 3.66725 0.666339Z" fill="#101828"/>
</svg>
