<svg width="151" height="34" viewBox="0 0 151 34" fill="none" xmlns="http://www.w3.org/2000/svg" id="svg-729124381_9615"><g clip-path="url(#svg-729124381_9615_clip0_8307_6123)"><mask id="svg-729124381_9615_mask0_8307_6123" style="mask-type:luminance" maskUnits="userSpaceOnUse" x="0" y="0" width="151" height="34"><path d="M150.198 0.200195H0.398438V33.8002H150.198V0.200195Z" fill="white"/></mask><g mask="url(#svg-729124381_9615_mask0_8307_6123)"><mask id="svg-729124381_9615_mask1_8307_6123" style="mask-type:luminance" maskUnits="userSpaceOnUse" x="0" y="0" width="34" height="34"><path d="M33.7166 0.200195H0.427734V33.8002H33.7166V0.200195Z" fill="white"/></mask><g mask="url(#svg-729124381_9615_mask1_8307_6123)"><path fill-rule="evenodd" clip-rule="evenodd" d="M21.6957 10.0158C20.3272 9.09286 18.7181 8.6002 17.0722 8.6002V0.200195C20.3641 0.200195 23.5821 1.1855 26.3193 3.03151C29.0565 4.87748 31.1898 7.50131 32.4496 10.5711C33.7094 13.6409 34.039 17.0188 33.3968 20.2777C32.7546 23.5366 31.1693 26.5301 28.8415 28.8796C26.5138 31.2291 23.548 32.8292 20.3193 33.4774C17.0906 34.1256 13.7439 33.7929 10.7026 32.5214C7.66123 31.2498 5.06174 29.0965 3.23283 26.3338C1.40392 23.571 0.427734 20.3229 0.427734 17.0002H8.74995C8.74995 18.6615 9.23805 20.2856 10.1525 21.667C11.0669 23.0484 12.3667 24.125 13.8874 24.7608C15.4081 25.3966 17.0814 25.5629 18.6958 25.2387C20.3101 24.9147 21.793 24.1147 22.9569 22.9399C24.1208 21.7651 24.9134 20.2684 25.2344 18.639C25.5556 17.0095 25.3908 15.3205 24.7609 13.7857C24.131 12.2508 23.0643 10.9388 21.6957 10.0158Z" fill="#007DFC"/><path fill-rule="evenodd" clip-rule="evenodd" d="M8.74995 0.200195C8.74995 1.3033 8.53473 2.3956 8.11645 3.41473C7.69826 4.43388 7.08525 5.3599 6.31244 6.13992C5.53964 6.91994 4.62222 7.53869 3.61252 7.96079C2.60281 8.38289 1.52063 8.6002 0.427734 8.6002V17.0002C2.61352 17.0002 4.77789 16.5657 6.7973 15.7214C8.81669 14.8771 10.6516 13.6396 12.1971 12.0796C13.7427 10.5196 14.9687 8.66756 15.8052 6.6293C16.6417 4.59104 17.0722 2.4064 17.0722 0.200195H8.74995Z" fill="#007DFC"/></g><path d="M52.901 29.9531L49.7319 26.5259C49.5999 26.5449 49.4584 26.5545 49.3075 26.5545C49.1566 26.5735 49.0151 26.583 48.8831 26.583C46.8647 26.583 45.1198 26.2118 43.6484 25.4692C42.1959 24.7076 41.0735 23.5747 40.2812 22.0706C39.5078 20.5664 39.1211 18.6909 39.1211 16.4442C39.1211 14.1404 39.5172 12.2459 40.3095 10.7608C41.1018 9.25662 42.243 8.14278 43.7333 7.41926C45.2235 6.6767 46.9967 6.30542 49.0528 6.30542C51.1467 6.30542 52.9293 6.6767 54.4007 7.41926C55.891 8.14278 57.0322 9.25662 57.8245 10.7608C58.6167 12.2459 59.0129 14.1404 59.0129 16.4442C59.0129 18.8242 58.579 20.7758 57.7113 22.299C56.8435 23.8222 55.6174 24.9455 54.0329 25.6691L58.3904 29.9531H52.901ZM49.0528 23.0987C49.9772 23.0987 50.7883 22.9654 51.4862 22.6989C52.1842 22.4323 52.769 22.0324 53.2406 21.4994C53.7122 20.9662 54.0706 20.3188 54.3158 19.5573C54.5611 18.7766 54.6837 17.8912 54.6837 16.9012V16.0158C54.6837 15.0067 54.5611 14.1118 54.3158 13.3312C54.0706 12.5505 53.7122 11.9032 53.2406 11.3891C52.769 10.856 52.1842 10.4561 51.4862 10.1896C50.7883 9.92299 49.9772 9.78977 49.0528 9.78977C48.1474 9.78977 47.3457 9.92299 46.6477 10.1896C45.9497 10.4561 45.365 10.856 44.8934 11.3891C44.4218 11.9032 44.0634 12.5505 43.8182 13.3312C43.5918 14.1118 43.4786 15.0067 43.4786 16.0158V16.9012C43.4786 17.8912 43.5918 18.7766 43.8182 19.5573C44.0634 20.3188 44.4218 20.9662 44.8934 21.4994C45.365 22.0324 45.9497 22.4323 46.6477 22.6989C47.3457 22.9654 48.1474 23.0987 49.0528 23.0987Z" fill="#1F3449"/><path d="M66.9058 26.5828C65.3968 26.5828 64.199 26.1639 63.3123 25.3262C62.4257 24.4884 61.9824 23.1365 61.9824 21.2706V11.2175H65.9155V20.6138C65.9155 21.1088 65.9721 21.5277 66.0853 21.8704C66.1985 22.1941 66.3588 22.4606 66.5663 22.6701C66.7927 22.8795 67.0662 23.0318 67.3869 23.127C67.7076 23.2222 68.066 23.2698 68.4621 23.2698C69.0469 23.2698 69.5751 23.127 70.0467 22.8414C70.5183 22.5558 70.8861 22.1655 71.1502 21.6705C71.4143 21.1564 71.5463 20.5852 71.5463 19.9569V11.2175H75.4794V26.2401H72.2537L71.9708 24.1838H71.7727C71.4143 24.6597 70.9899 25.0786 70.4994 25.4404C70.0278 25.8021 69.4902 26.0782 68.8865 26.2686C68.2829 26.4781 67.6227 26.5828 66.9058 26.5828Z" fill="#1F3449"/><path d="M79.0898 9.01878V5.59155H83.0229V9.01878H79.0898ZM79.0898 26.2405V11.2179H83.0229V26.2405H79.0898Z" fill="#1F3449"/><path d="M85.0781 26.2401L90.4826 18.4432L85.4743 11.2175H90.1996L93.0292 15.73H93.1707L96.0285 11.2175H100.471L95.4343 18.4146L100.754 26.2401H96.1134L92.8877 21.1278H92.7462L89.5205 26.2401H85.0781Z" fill="#1F3449"/><path d="M106.013 26.5828C105.523 26.5828 104.995 26.5256 104.429 26.4114C103.882 26.2972 103.363 26.0972 102.873 25.8116C102.382 25.507 101.976 25.0786 101.656 24.5264C101.354 23.9552 101.203 23.2317 101.203 22.3559C101.203 21.3086 101.429 20.4424 101.882 19.7569C102.335 19.0715 102.977 18.5383 103.806 18.1576C104.655 17.7577 105.665 17.4816 106.834 17.3293C108.003 17.1769 109.296 17.1008 110.71 17.1008V15.987C110.71 15.549 110.635 15.1682 110.484 14.8446C110.352 14.5209 110.107 14.2638 109.748 14.0735C109.409 13.883 108.928 13.7879 108.305 13.7879C107.683 13.7879 107.173 13.864 106.777 14.0164C106.4 14.1686 106.127 14.3686 105.957 14.6161C105.806 14.8446 105.73 15.1016 105.73 15.3872V15.73H101.911C101.891 15.6347 101.882 15.549 101.882 15.4729C101.882 15.3777 101.882 15.2634 101.882 15.1302C101.882 14.2543 102.146 13.5023 102.674 12.874C103.203 12.2266 103.948 11.7316 104.91 11.3888C105.872 11.0461 106.995 10.8748 108.277 10.8748C109.654 10.8748 110.804 11.0556 111.729 11.4174C112.672 11.7791 113.389 12.3122 113.88 13.0168C114.389 13.7212 114.644 14.6065 114.644 15.6728V22.4987C114.644 22.8414 114.738 23.0984 114.926 23.2698C115.134 23.4221 115.36 23.4983 115.606 23.4983H116.539V26.0972C116.35 26.1924 116.058 26.2876 115.662 26.3828C115.266 26.4971 114.785 26.5542 114.219 26.5542C113.672 26.5542 113.181 26.4685 112.748 26.2972C112.332 26.1448 111.984 25.9259 111.701 25.6403C111.418 25.3356 111.22 24.9738 111.107 24.555H110.909C110.588 24.9548 110.192 25.307 109.72 25.6117C109.267 25.9163 108.73 26.1544 108.107 26.3257C107.504 26.4971 106.806 26.5828 106.013 26.5828ZM107.343 23.584C107.872 23.584 108.343 23.5078 108.758 23.3555C109.173 23.1841 109.522 22.9651 109.805 22.6986C110.088 22.413 110.305 22.0703 110.456 21.6704C110.626 21.2706 110.71 20.8422 110.71 20.3852V19.557C109.654 19.557 108.711 19.6331 107.881 19.7855C107.051 19.9187 106.39 20.1568 105.9 20.4995C105.428 20.8422 105.193 21.3181 105.193 21.9275C105.193 22.2702 105.278 22.5653 105.447 22.8128C105.617 23.0603 105.863 23.2507 106.183 23.384C106.504 23.5173 106.891 23.584 107.343 23.584Z" fill="#1F3449"/><path d="M118.494 26.24V11.2175H121.748L122.059 13.2738H122.257C122.597 12.7787 123.002 12.3503 123.474 11.9886C123.964 11.6268 124.511 11.3507 125.115 11.1604C125.719 10.9699 126.379 10.8748 127.096 10.8748C128.076 10.8748 128.935 11.0556 129.671 11.4174C130.407 11.7791 130.972 12.3503 131.369 13.131C131.783 13.9116 131.991 14.9303 131.991 16.1869V26.24H128.058V16.8152C128.058 16.3392 128.001 15.9394 127.888 15.6157C127.775 15.273 127.605 14.9969 127.379 14.7875C127.171 14.559 126.907 14.3971 126.587 14.302C126.265 14.2067 125.908 14.1592 125.511 14.1592C124.926 14.1592 124.398 14.302 123.927 14.5876C123.455 14.8732 123.087 15.2634 122.823 15.7585C122.559 16.2535 122.427 16.8247 122.427 17.4721V26.24H118.494Z" fill="#1F3449"/><path d="M139.449 26.5828C138.959 26.5828 138.43 26.5256 137.864 26.4114C137.318 26.2972 136.798 26.0972 136.308 25.8116C135.818 25.507 135.412 25.0786 135.091 24.5264C134.789 23.9552 134.639 23.2317 134.639 22.3559C134.639 21.3086 134.865 20.4424 135.318 19.7569C135.771 19.0715 136.412 18.5383 137.242 18.1576C138.091 17.7577 139.1 17.4816 140.269 17.3293C141.439 17.1769 142.731 17.1008 144.146 17.1008V15.987C144.146 15.549 144.07 15.1682 143.92 14.8446C143.787 14.5209 143.543 14.2638 143.184 14.0735C142.844 13.883 142.363 13.7879 141.741 13.7879C141.118 13.7879 140.609 13.864 140.213 14.0164C139.836 14.1686 139.562 14.3686 139.392 14.6161C139.242 14.8446 139.166 15.1016 139.166 15.3872V15.73H135.346C135.327 15.6347 135.318 15.549 135.318 15.4729C135.318 15.3777 135.318 15.2634 135.318 15.1302C135.318 14.2543 135.582 13.5023 136.11 12.874C136.639 12.2266 137.383 11.7316 138.345 11.3888C139.307 11.0461 140.43 10.8748 141.713 10.8748C143.09 10.8748 144.24 11.0556 145.165 11.4174C146.108 11.7791 146.825 12.3122 147.315 13.0168C147.824 13.7212 148.079 14.6065 148.079 15.6728V22.4987C148.079 22.8414 148.173 23.0984 148.362 23.2698C148.569 23.4221 148.796 23.4983 149.041 23.4983H149.975V26.0972C149.786 26.1924 149.494 26.2876 149.098 26.3828C148.702 26.4971 148.221 26.5542 147.655 26.5542C147.108 26.5542 146.617 26.4685 146.183 26.2972C145.768 26.1448 145.419 25.9259 145.136 25.6403C144.853 25.3356 144.655 24.9738 144.542 24.555H144.344C144.024 24.9548 143.628 25.307 143.156 25.6117C142.703 25.9163 142.165 26.1544 141.543 26.3257C140.939 26.4971 140.241 26.5828 139.449 26.5828ZM140.779 23.584C141.307 23.584 141.778 23.5078 142.194 23.3555C142.609 23.1841 142.958 22.9651 143.241 22.6986C143.523 22.413 143.741 22.0703 143.891 21.6704C144.061 21.2706 144.146 20.8422 144.146 20.3852V19.557C143.09 19.557 142.146 19.6331 141.316 19.7855C140.487 19.9187 139.826 20.1568 139.336 20.4995C138.864 20.8422 138.628 21.3181 138.628 21.9275C138.628 22.2702 138.713 22.5653 138.883 22.8128C139.053 23.0603 139.298 23.2507 139.619 23.384C139.939 23.5173 140.326 23.584 140.779 23.584Z" fill="#1F3449"/></g></g><defs><clipPath id="svg-729124381_9615_clip0_8307_6123"><rect width="149.8" height="33.6" fill="white" transform="translate(0.400391 0.199951)"/></clipPath></defs></svg>