<svg width="178" height="42" viewBox="0 0 178 42" fill="none" xmlns="http://www.w3.org/2000/svg" id="svg1771216246_8639"><path fill-rule="evenodd" clip-rule="evenodd" d="M12.1028 3.1416C10.1167 3.1416 8.21205 3.94259 6.8077 5.36834L0.03125 12.2481V15.3972C0.03125 17.622 0.972572 19.6236 2.47293 21.0139C0.972572 22.4042 0.03125 24.4058 0.03125 26.6307V29.7798L6.8077 36.6595C8.21205 38.0853 10.1167 38.8863 12.1028 38.8863C14.2942 38.8863 16.2657 37.9306 17.6352 36.4074C19.0046 37.9306 20.9761 38.8863 23.1676 38.8863C25.1536 38.8863 27.0583 38.0853 28.4627 36.6595L35.2391 29.7798V26.6307C35.2391 24.4058 34.2978 22.4042 32.7975 21.0139C34.2978 19.6236 35.2391 17.622 35.2391 15.3972V12.2481L28.4627 5.36834C27.0583 3.94259 25.1536 3.1416 23.1676 3.1416C20.9761 3.1416 19.0046 4.09727 17.6352 5.6205C16.2657 4.09727 14.2942 3.1416 12.1028 3.1416ZM22.704 21.0139C22.6196 20.9357 22.5368 20.8554 22.4557 20.773L17.6352 15.879L12.8147 20.773C12.7335 20.8554 12.6507 20.9357 12.5663 21.0139C12.6507 21.0921 12.7335 21.1725 12.8147 21.2548L17.6352 26.1488L22.4557 21.2548C22.5368 21.1725 22.6196 21.0921 22.704 21.0139ZM19.5911 29.7798V31.2837C19.5911 33.289 21.1924 34.9147 23.1676 34.9147C24.1161 34.9147 25.0257 34.5321 25.6965 33.8512L31.3272 28.1346V26.6307C31.3272 24.6254 29.7259 22.9997 27.7507 22.9997C26.8022 22.9997 25.8926 23.3823 25.2219 24.0632L19.5911 29.7798ZM15.6792 29.7798L10.0485 24.0632C9.37776 23.3823 8.46819 22.9997 7.51969 22.9997C5.54444 22.9997 3.94324 24.6254 3.94324 26.6307V28.1346L9.57387 33.8512C10.2446 34.5321 11.1543 34.9147 12.1028 34.9147C14.0779 34.9147 15.6792 33.289 15.6792 31.2837V29.7798ZM15.6792 10.7441V12.2481L10.0485 17.9646C9.37776 18.6456 8.46819 19.0281 7.51969 19.0281C5.54444 19.0281 3.94324 17.4025 3.94324 15.3972V13.8932L9.57387 8.17667C10.2446 7.49582 11.1543 7.11324 12.1028 7.11324C14.0779 7.11324 15.6792 8.73884 15.6792 10.7441ZM25.2219 17.9646L19.5911 12.2481V10.7441C19.5911 8.73884 21.1924 7.11324 23.1676 7.11324C24.1161 7.11324 25.0257 7.49582 25.6965 8.17667L31.3272 13.8932V15.3972C31.3272 17.4025 29.7259 19.0281 27.7507 19.0281C26.8022 19.0281 25.8926 18.6456 25.2219 17.9646Z" fill="#FF630B"/><path d="M47.7504 22.9747V33.9578H42.5605V14.96H47.5067V18.3118H47.726C48.1402 17.2069 48.8346 16.3329 49.8092 15.6897C50.7838 15.0383 51.9656 14.7126 53.3543 14.7126C54.6539 14.7126 55.7868 15.0012 56.7533 15.5784C57.7198 16.1556 58.4711 16.9801 59.0071 18.0521C59.5431 19.1158 59.8111 20.3856 59.8111 21.8615V33.9578H54.6214V22.8015C54.6295 21.6389 54.3371 20.7319 53.7442 20.0805C53.1514 19.4208 52.3351 19.091 51.2955 19.091C50.597 19.091 49.9797 19.2436 49.4438 19.5486C48.9158 19.8537 48.5016 20.299 48.2011 20.8844C47.9087 21.4616 47.7585 22.1584 47.7504 22.9747Z" fill="#361807"/><path d="M71.3468 34.3288C69.4544 34.3288 67.8179 33.9207 66.4372 33.1044C65.0646 32.2798 64.0048 31.1337 63.2576 29.6659C62.5104 28.19 62.1367 26.479 62.1367 24.5331C62.1367 22.5707 62.5104 20.8555 63.2576 19.3879C64.0048 17.9119 65.0646 16.7657 66.4372 15.9494C67.8179 15.1249 69.4544 14.7126 71.3468 14.7126C73.2392 14.7126 74.8716 15.1249 76.2442 15.9494C77.6249 16.7657 78.6888 17.9119 79.436 19.3879C80.1832 20.8555 80.5569 22.5707 80.5569 24.5331C80.5569 26.479 80.1832 28.19 79.436 29.6659C78.6888 31.1337 77.6249 32.2798 76.2442 33.1044C74.8716 33.9207 73.2392 34.3288 71.3468 34.3288ZM71.3711 30.2473C72.2321 30.2473 72.9508 29.9998 73.5275 29.5051C74.1042 29.0022 74.5386 28.3178 74.831 27.452C75.1315 26.5862 75.2818 25.6008 75.2818 24.496C75.2818 23.3911 75.1315 22.4057 74.831 21.54C74.5386 20.6741 74.1042 19.9898 73.5275 19.4868C72.9508 18.9838 72.2321 18.7323 71.3711 18.7323C70.5021 18.7323 69.7712 18.9838 69.1783 19.4868C68.5935 19.9898 68.1509 20.6741 67.8504 21.54C67.558 22.4057 67.4118 23.3911 67.4118 24.496C67.4118 25.6008 67.558 26.5862 67.8504 27.452C68.1509 28.3178 68.5935 29.0022 69.1783 29.5051C69.7712 29.9998 70.5021 30.2473 71.3711 30.2473Z" fill="#361807"/><path d="M99.7655 14.96L93.2239 33.9577H87.3761L80.834 14.96H86.3162L90.2022 28.5528H90.3976L94.2713 14.96H99.7655Z" fill="#361807"/><path d="M106.247 34.3165C105.052 34.3165 103.988 34.1062 103.054 33.6857C102.12 33.2569 101.381 32.6261 100.837 31.7933C100.301 30.9523 100.033 29.905 100.033 28.6517C100.033 27.5963 100.224 26.7099 100.605 25.9925C100.987 25.2752 101.507 24.698 102.165 24.2609C102.823 23.824 103.57 23.4941 104.407 23.2715C105.251 23.0488 106.136 22.8922 107.062 22.8015C108.15 22.686 109.028 22.5789 109.693 22.48C110.36 22.3727 110.843 22.2161 111.144 22.0099C111.444 21.8038 111.595 21.4987 111.595 21.0947V21.0204C111.595 20.2372 111.351 19.6311 110.863 19.2024C110.384 18.7735 109.702 18.5591 108.817 18.5591C107.883 18.5591 107.14 18.7694 106.587 19.1899C106.035 19.6023 105.669 20.1217 105.49 20.7484L100.691 20.3525C100.935 19.1982 101.413 18.2005 102.128 17.3594C102.843 16.5102 103.765 15.8587 104.894 15.4052C106.031 14.9435 107.347 14.7126 108.841 14.7126C109.881 14.7126 110.875 14.8363 111.826 15.0837C112.784 15.331 113.633 15.7145 114.372 16.2339C115.119 16.7534 115.708 17.4213 116.138 18.2376C116.569 19.0456 116.784 20.0145 116.784 21.1442V33.9578H111.862V31.3233H111.716C111.416 31.917 111.014 32.4406 110.51 32.8941C110.007 33.3394 109.401 33.6898 108.695 33.9454C107.988 34.1928 107.172 34.3165 106.247 34.3165ZM107.732 30.6802C108.495 30.6802 109.17 30.5276 109.755 30.2225C110.339 29.9091 110.798 29.4887 111.132 28.9609C111.464 28.4332 111.631 27.8354 111.631 27.1675V25.1515C111.469 25.2587 111.245 25.3576 110.961 25.4483C110.684 25.5308 110.372 25.6091 110.023 25.6833C109.673 25.7493 109.325 25.8111 108.975 25.8688C108.626 25.9183 108.309 25.9636 108.025 26.0049C107.415 26.0956 106.884 26.2399 106.429 26.4378C105.974 26.6357 105.621 26.9036 105.369 27.2418C105.117 27.5715 104.991 27.9838 104.991 28.4785C104.991 29.1959 105.247 29.7443 105.759 30.1236C106.278 30.4946 106.937 30.6802 107.732 30.6802Z" fill="#361807"/><path d="M126.697 34.267C125.276 34.267 123.988 33.896 122.835 33.1538C121.69 32.4036 120.781 31.3027 120.106 29.8516C119.44 28.392 119.107 26.6028 119.107 24.4837C119.107 22.3068 119.452 20.4969 120.143 19.054C120.833 17.6028 121.751 16.5184 122.896 15.801C124.05 15.0755 125.312 14.7127 126.685 14.7127C127.732 14.7127 128.606 14.8941 129.305 15.2569C130.01 15.6114 130.579 16.0567 131.009 16.5927C131.449 17.1204 131.781 17.6398 132.008 18.1511H132.167V8.62744H137.345V33.9578H132.228V30.9152H132.008C131.765 31.4429 131.42 31.9665 130.973 32.4859C130.535 32.9972 129.962 33.4218 129.255 33.7599C128.557 34.098 127.704 34.267 126.697 34.267ZM128.342 30.0742C129.179 30.0742 129.885 29.8433 130.462 29.3815C131.046 28.9116 131.493 28.256 131.802 27.4149C132.119 26.574 132.277 25.5886 132.277 24.4589C132.277 23.3293 132.122 22.348 131.814 21.5153C131.505 20.6824 131.059 20.0393 130.473 19.5858C129.889 19.1323 129.179 18.9056 128.342 18.9056C127.489 18.9056 126.77 19.1406 126.185 19.6105C125.601 20.0806 125.158 20.7319 124.858 21.5647C124.557 22.3975 124.407 23.3623 124.407 24.4589C124.407 25.5638 124.557 26.5409 124.858 27.3902C125.166 28.2313 125.609 28.8909 126.185 29.3692C126.77 29.8391 127.489 30.0742 128.342 30.0742Z" fill="#361807"/><path d="M149.128 34.3288C147.204 34.3288 145.547 33.933 144.158 33.1414C142.778 32.3417 141.713 31.2119 140.966 29.7525C140.219 28.2848 139.846 26.5491 139.846 24.5455C139.846 22.5912 140.219 20.8762 140.966 19.4002C141.713 17.9242 142.765 16.774 144.122 15.9494C145.486 15.1249 147.086 14.7126 148.921 14.7126C150.156 14.7126 151.305 14.9146 152.369 15.3187C153.441 15.7145 154.375 16.3122 155.172 17.1121C155.975 17.9119 156.6 18.9178 157.047 20.1299C157.494 21.3338 157.717 22.7438 157.717 24.36V25.807H141.917V22.5418H152.832C152.832 21.7832 152.67 21.1111 152.345 20.5257C152.02 19.9403 151.569 19.4827 150.993 19.1529C150.424 18.8148 149.762 18.6457 149.007 18.6457C148.219 18.6457 147.521 18.8312 146.911 19.2024C146.311 19.5652 145.839 20.0558 145.498 20.6741C145.157 21.2843 144.983 21.9646 144.975 22.7149V25.8194C144.975 26.7594 145.145 27.5715 145.486 28.2559C145.835 28.9404 146.327 29.4681 146.96 29.8391C147.594 30.2101 148.345 30.3957 149.214 30.3957C149.791 30.3957 150.318 30.3132 150.798 30.1483C151.277 29.9834 151.687 29.736 152.029 29.4062C152.369 29.0764 152.629 28.6724 152.807 28.1941L157.608 28.5157C157.364 29.6865 156.864 30.709 156.109 31.5831C155.362 32.4488 154.395 33.1249 153.21 33.6115C152.032 34.0897 150.672 34.3288 149.128 34.3288Z" fill="#361807"/><path d="M164.098 14.96L167.533 21.6018L171.054 14.96H176.378L170.957 24.4588L176.525 33.9577H171.225L167.533 27.3901L163.903 33.9577H158.543L164.098 24.4588L158.737 14.96H164.098Z" fill="#361807"/></svg>