<svg width="157" height="38" viewBox="0 0 157 38" fill="none" xmlns="http://www.w3.org/2000/svg" id="svg42068786_8407"><g clip-path="url(#svg42068786_8407_clip0_8307_6141)"><path fill-rule="evenodd" clip-rule="evenodd" d="M18.9579 36.7208C28.9761 36.7208 37.0974 28.6401 37.0974 18.6721C37.0974 8.704 28.9761 0.623291 18.9579 0.623291C8.93969 0.623291 0.818359 8.704 0.818359 18.6721C0.818359 28.6401 8.93969 36.7208 18.9579 36.7208ZM24.6168 9.03116C24.8922 8.05762 23.9427 7.48194 23.0756 8.09665L10.9702 16.6773C10.0298 17.3439 10.1777 18.6721 11.1925 18.6721H14.3801V18.6475H20.5927L15.5306 20.4247L13.299 28.313C13.0236 29.2865 13.973 29.8622 14.8402 29.2475L26.9456 20.6669C27.886 20.0003 27.738 18.6721 26.7233 18.6721H21.8893L24.6168 9.03116Z" fill="#3BC56A"/><path d="M44.5469 28.4754V8.78589H48.7307V25.0433H57.2143V28.4754H44.5469Z" fill="#192129"/><path d="M68.5175 22.1878V13.7083H72.6337V28.4754H68.6818V25.7931H68.5272C68.1922 26.6583 67.635 27.3538 66.8556 27.8793C66.0826 28.4049 65.1389 28.6677 64.0245 28.6677C63.0325 28.6677 62.1596 28.4434 61.4059 27.9948C60.6523 27.5461 60.0629 26.9083 59.6378 26.0815C59.219 25.2547 59.0064 24.2644 59 23.1108V13.7083H63.1162V22.3801C63.1227 23.2518 63.3578 23.9408 63.8216 24.4471C64.2854 24.9535 64.907 25.2067 65.6864 25.2067C66.1824 25.2067 66.6462 25.0945 67.0778 24.8702C67.5093 24.6394 67.8573 24.2997 68.1214 23.851C68.3919 23.4024 68.524 22.848 68.5175 22.1878Z" fill="#192129"/><path d="M75.0195 28.4753V13.7082H78.9424V16.3136H79.1163C79.4255 15.4484 79.9409 14.7657 80.6623 14.2658C81.3838 13.7658 82.247 13.5159 83.2519 13.5159C84.2696 13.5159 85.136 13.7691 85.851 14.2754C86.5661 14.7753 87.0427 15.4548 87.281 16.3136H87.4357C87.7384 15.4676 88.286 14.7914 89.0783 14.285C89.877 13.7723 90.8207 13.5159 91.9093 13.5159C93.2943 13.5159 94.418 13.9549 95.2815 14.833C96.1513 15.7046 96.5857 16.9417 96.5857 18.5441V28.4753H92.4798V19.3516C92.4798 18.5312 92.2603 17.9159 91.8223 17.5057C91.3842 17.0955 90.8368 16.8904 90.1798 16.8904C89.4326 16.8904 88.8496 17.1275 88.4309 17.6018C88.0122 18.0698 87.8028 18.6883 87.8028 19.4573V28.4753H83.8123V19.2651C83.8123 18.5408 83.6029 17.964 83.1842 17.5345C82.7719 17.1051 82.2276 16.8904 81.5513 16.8904C81.0939 16.8904 80.6816 17.0058 80.3145 17.2365C79.9538 17.4609 79.6671 17.7781 79.4546 18.1883C79.242 18.5921 79.1357 19.0664 79.1357 19.6112V28.4753H75.0195Z" fill="#192129"/><path d="M105.695 28.7638C104.168 28.7638 102.853 28.4561 101.752 27.8408C100.658 27.2191 99.8131 26.3411 99.2209 25.2066C98.6277 24.0657 98.332 22.7165 98.332 21.1591C98.332 19.64 98.6277 18.3069 99.2209 17.1596C99.8131 16.0124 100.648 15.1182 101.723 14.4773C102.805 13.8363 104.074 13.5159 105.53 13.5159C106.509 13.5159 107.421 13.6729 108.264 13.9869C109.115 14.2946 109.856 14.7593 110.487 15.381C111.125 16.0027 111.621 16.7847 111.975 17.7268C112.329 18.6626 112.506 19.7586 112.506 21.0149V22.1397H99.9746V19.6016H108.632C108.632 19.0119 108.503 18.4896 108.245 18.0345C107.988 17.5795 107.63 17.2237 107.172 16.9673C106.722 16.7045 106.196 16.5732 105.598 16.5732C104.973 16.5732 104.419 16.7174 103.936 17.0058C103.459 17.2878 103.085 17.6692 102.815 18.1499C102.545 18.6241 102.406 19.153 102.4 19.7362V22.1493C102.4 22.8799 102.535 23.5113 102.805 24.0433C103.083 24.5753 103.472 24.9854 103.974 25.2738C104.477 25.5623 105.073 25.7065 105.762 25.7065C106.219 25.7065 106.638 25.6424 107.018 25.5142C107.398 25.386 107.724 25.1938 107.994 24.9374C108.264 24.681 108.471 24.367 108.613 23.9952L112.419 24.2451C112.226 25.1553 111.83 25.95 111.231 26.6295C110.639 27.3024 109.872 27.828 108.931 28.2061C107.998 28.5779 106.918 28.7638 105.695 28.7638Z" fill="#192129"/><path d="M126.635 17.9191L122.866 18.1499C122.802 17.8293 122.663 17.5409 122.451 17.2846C122.239 17.0218 121.959 16.8135 121.61 16.6597C121.269 16.4994 120.86 16.4193 120.383 16.4193C119.746 16.4193 119.208 16.5539 118.77 16.8231C118.332 17.0859 118.113 17.4384 118.113 17.8807C118.113 18.2332 118.254 18.5312 118.537 18.7747C118.821 19.0183 119.307 19.2138 119.997 19.3612L122.683 19.8996C124.126 20.1945 125.202 20.6688 125.91 21.3225C126.619 21.9762 126.973 22.8351 126.973 23.8991C126.973 24.8668 126.687 25.7161 126.113 26.4468C125.547 27.1774 124.767 27.7479 123.774 28.1581C122.789 28.5619 121.652 28.7638 120.364 28.7638C118.4 28.7638 116.834 28.3567 115.668 27.5427C114.509 26.7224 113.829 25.6072 113.629 24.1971L117.678 23.9856C117.8 24.5817 118.097 25.0368 118.566 25.3508C119.037 25.6585 119.639 25.8122 120.373 25.8122C121.095 25.8122 121.675 25.6744 122.113 25.3988C122.557 25.1168 122.783 24.7548 122.789 24.3125C122.783 23.9408 122.625 23.6363 122.316 23.3991C122.007 23.1555 121.53 22.9697 120.886 22.8415L118.315 22.332C116.866 22.0436 115.788 21.5436 115.078 20.8322C114.376 20.1207 114.025 19.2138 114.025 18.1114C114.025 17.1628 114.283 16.3456 114.798 15.6598C115.32 14.974 116.051 14.4452 116.992 14.0735C117.939 13.7018 119.046 13.5159 120.316 13.5159C122.19 13.5159 123.666 13.9101 124.741 14.6984C125.823 15.4868 126.454 16.5603 126.635 17.9191Z" fill="#192129"/><path d="M141.006 17.9191L137.238 18.1499C137.173 17.8293 137.034 17.5409 136.822 17.2846C136.609 17.0218 136.329 16.8135 135.981 16.6597C135.639 16.4994 135.23 16.4193 134.754 16.4193C134.117 16.4193 133.579 16.5539 133.141 16.8231C132.703 17.0859 132.483 17.4384 132.483 17.8807C132.483 18.2332 132.626 18.5312 132.909 18.7747C133.192 19.0183 133.679 19.2138 134.368 19.3612L137.053 19.8996C138.496 20.1945 139.572 20.6688 140.281 21.3225C140.99 21.9762 141.343 22.8351 141.343 23.8991C141.343 24.8668 141.057 25.7161 140.484 26.4468C139.917 27.1774 139.138 27.7479 138.145 28.1581C137.16 28.5619 136.023 28.7638 134.735 28.7638C132.77 28.7638 131.204 28.3567 130.039 27.5427C128.88 26.7224 128.2 25.6072 128 24.1971L132.049 23.9856C132.171 24.5817 132.468 25.0368 132.938 25.3508C133.407 25.6585 134.011 25.8122 134.744 25.8122C135.466 25.8122 136.046 25.6744 136.484 25.3988C136.928 25.1168 137.153 24.7548 137.16 24.3125C137.153 23.9408 136.995 23.6363 136.687 23.3991C136.378 23.1555 135.901 22.9697 135.257 22.8415L132.686 22.332C131.237 22.0436 130.158 21.5436 129.449 20.8322C128.747 20.1207 128.396 19.2138 128.396 18.1114C128.396 17.1628 128.654 16.3456 129.169 15.6598C129.691 14.974 130.423 14.4452 131.362 14.0735C132.31 13.7018 133.417 13.5159 134.686 13.5159C136.561 13.5159 138.036 13.9101 139.112 14.6984C140.194 15.4868 140.826 16.5603 141.006 17.9191Z" fill="#192129"/><path d="M147.262 28.7542C146.315 28.7542 145.471 28.5908 144.73 28.2638C143.989 27.9305 143.403 27.4402 142.972 26.7929C142.547 26.1391 142.334 25.3252 142.334 24.3509C142.334 23.5305 142.485 22.8415 142.788 22.2839C143.091 21.7263 143.503 21.2777 144.025 20.938C144.547 20.5982 145.139 20.3418 145.803 20.1688C146.473 19.9957 147.175 19.874 147.909 19.8034C148.773 19.7137 149.468 19.6304 149.996 19.5535C150.525 19.4702 150.908 19.3484 151.146 19.1881C151.385 19.028 151.504 18.7908 151.504 18.4768V18.4191C151.504 17.8101 151.31 17.3391 150.924 17.0058C150.544 16.6725 150.002 16.5058 149.3 16.5058C148.56 16.5058 147.971 16.6693 147.533 16.9962C147.095 17.3167 146.804 17.7204 146.663 18.2076L142.855 17.8999C143.05 17.0026 143.43 16.2271 143.996 15.5732C144.563 14.9131 145.294 14.4068 146.19 14.0543C147.091 13.6954 148.135 13.5159 149.32 13.5159C150.145 13.5159 150.934 13.6121 151.688 13.8043C152.448 13.9966 153.121 14.2946 153.707 14.6984C154.3 15.1022 154.767 15.6213 155.108 16.2559C155.449 16.884 155.62 17.6371 155.62 18.5152V28.4753H151.717V26.4275H151.601C151.362 26.889 151.043 27.296 150.644 27.6485C150.245 27.9947 149.765 28.267 149.204 28.4658C148.644 28.658 147.996 28.7542 147.262 28.7542ZM148.441 25.9277C149.047 25.9277 149.581 25.8091 150.045 25.5719C150.509 25.3283 150.872 25.0015 151.136 24.5912C151.401 24.1811 151.533 23.7164 151.533 23.1972V21.6301C151.404 21.7134 151.227 21.7904 151.001 21.8609C150.782 21.925 150.534 21.9859 150.257 22.0436C149.981 22.0948 149.703 22.1429 149.427 22.1878C149.149 22.2262 148.898 22.2615 148.673 22.2935C148.189 22.364 147.768 22.4762 147.407 22.6301C147.046 22.7838 146.766 22.9921 146.566 23.2549C146.366 23.5113 146.267 23.8317 146.267 24.2164C146.267 24.774 146.47 25.2002 146.875 25.495C147.288 25.7834 147.809 25.9277 148.441 25.9277Z" fill="#192129"/></g><defs><clipPath id="svg42068786_8407_clip0_8307_6141"><rect width="156" height="37" fill="white" transform="translate(0.199219 0.5)"/></clipPath></defs></svg>