<svg width="140" height="38" viewBox="0 0 140 38" fill="none" xmlns="http://www.w3.org/2000/svg" id="svg974163682_3931"><g clip-path="url(#svg974163682_3931_clip0_8307_6110)"><path d="M24.4388 1.92327L20.7803 0.95166L17.6972 12.3558L14.9138 2.06007L11.2552 3.03168L14.2626 14.1554L6.77196 6.73136L4.09373 9.38583L12.31 17.5292L2.07796 14.8119L1.09766 18.4379L12.2774 21.407C12.1494 20.8598 12.0817 20.2897 12.0817 19.7038C12.0817 15.5573 15.4732 12.1958 19.6569 12.1958C23.8406 12.1958 27.2321 15.5573 27.2321 19.7038C27.2321 20.2859 27.1652 20.8525 27.0388 21.3965L37.1991 24.0947L38.1793 20.4687L26.9552 17.4878L37.1878 14.7703L36.2075 11.1443L24.9838 14.1249L32.4743 6.70088L29.7961 4.0464L21.6938 12.0768L24.4388 1.92327Z" fill="#7DB535"/><path d="M27.029 21.438C26.7154 22.7523 26.0532 23.9331 25.1445 24.8791L32.5052 32.1746L35.1834 29.5201L27.029 21.438Z" fill="#7FCB1E"/><path d="M25.0705 24.9563C24.1509 25.8872 22.9888 26.5819 21.6855 26.9399L24.364 36.8472L28.0224 35.8755L25.0705 24.9563Z" fill="#7FCB1E"/><path d="M21.5479 26.9767C20.9432 27.1308 20.3095 27.2127 19.6564 27.2127C18.9567 27.2127 18.2792 27.1186 17.6359 26.9426L14.9551 36.8589L18.6136 37.8305L21.5479 26.9767Z" fill="#7FCB1E"/><path d="M17.5071 26.9047C16.2237 26.529 15.0823 25.8254 14.1815 24.8918L6.80273 32.2052L9.48096 34.8597L17.5071 26.9047Z" fill="#7FCB1E"/><path d="M14.1187 24.8275C13.2333 23.888 12.5884 22.723 12.2814 21.429L2.08789 24.1361L3.06818 27.7621L14.1187 24.8275Z" fill="#7FCB1E"/><path d="M60.4096 10.939L53.9112 29.6029H49.6007L43.1543 10.939H46.7878L51.7625 25.2274L56.7763 10.939H60.4096Z" fill="#322727"/><path d="M62.0762 10.939H65.8658V29.6029H62.0762V10.939Z" fill="#322727"/><path d="M83.7698 29.6029H79.8239L76.7635 22.4136H72.9478V29.6029H69.1582V10.939H77.1021C78.6041 10.939 79.8325 11.1755 80.7876 11.6489C81.7426 12.1221 82.4458 12.7804 82.8973 13.6237C83.3487 14.4583 83.5745 15.422 83.5745 16.5149C83.5745 17.4959 83.4182 18.3262 83.1056 19.006C82.8017 19.6772 82.398 20.2365 81.8945 20.684C81.3997 21.1314 80.8571 21.4971 80.2667 21.7811L83.7698 29.6029ZM76.4249 19.5094C77.4407 19.5094 78.2438 19.2384 78.8342 18.6963C79.4332 18.1542 79.7327 17.4572 79.7327 16.6053C79.7327 15.7447 79.4462 15.065 78.8732 14.5659C78.3002 14.0668 77.5753 13.8173 76.6984 13.8173H72.9478V19.5094H76.4249Z" fill="#322727"/><path d="M86.3633 29.6029V10.939H99.2948L99.2818 14.1142H90.179V18.6446H98.0837V21.7553H90.1529V26.389L99.4251 26.4019V29.6029H86.3633Z" fill="#322727"/><path d="M109.69 29.8614C107.911 29.8614 106.369 29.4784 105.067 28.7127C103.773 27.9382 102.77 26.8411 102.059 25.4213C101.356 23.9928 101.004 22.2891 101.004 20.31C101.004 18.3223 101.36 16.6099 102.072 15.1729C102.793 13.7359 103.804 12.6302 105.106 11.8557C106.408 11.0726 107.937 10.6812 109.69 10.6812C111.435 10.6812 112.954 11.0684 114.248 11.8428C115.542 12.6172 116.54 13.7229 117.243 15.16C117.955 16.5969 118.311 18.3136 118.311 20.31C118.311 22.2805 117.96 23.9799 117.256 25.4084C116.562 26.8368 115.568 27.9382 114.274 28.7127C112.98 29.4784 111.453 29.8614 109.69 29.8614ZM109.69 26.7637C110.61 26.7637 111.404 26.5485 112.073 26.1183C112.75 25.6795 113.271 24.991 113.636 24.0531C114.001 23.1066 114.183 21.876 114.183 20.3616C114.183 18.8041 113.996 17.5435 113.623 16.5798C113.258 15.616 112.737 14.9104 112.06 14.463C111.391 14.0069 110.602 13.7789 109.69 13.7789C108.779 13.7789 107.984 14.0069 107.307 14.463C106.63 14.9104 106.104 15.6203 105.731 16.5927C105.358 17.5564 105.171 18.8128 105.171 20.3616C105.171 21.8847 105.358 23.1151 105.731 24.0531C106.104 24.991 106.63 25.6795 107.307 26.1183C107.984 26.5485 108.779 26.7637 109.69 26.7637Z" fill="#322727"/><path d="M133.105 10.939H136.907V29.6029H133.482L124.536 16.7602V29.6029H120.746V10.939H124.51L133.105 23.2913V10.939Z" fill="#322727"/></g><defs><clipPath id="svg974163682_3931_clip0_8307_6110"><rect width="138.6" height="37.8" fill="white" transform="translate(0.800781 0.100098)"/></clipPath></defs></svg>