<svg width="130" height="36" viewBox="0 0 130 36" fill="none" xmlns="http://www.w3.org/2000/svg" id="svg1574451302_5826"><g clip-path="url(#svg1574451302_5826_clip0_8307_6162)"><path d="M33.0928 11.327C32.4589 9.84587 31.62 8.46562 30.6017 7.22859C29.0965 5.3453 27.218 3.80912 25.0897 2.72116C22.9616 1.63322 20.632 1.01815 18.2545 0.91644C15.877 0.814725 13.5053 1.22869 11.2956 2.13108C9.08594 3.03348 7.08828 4.40384 5.43425 6.15197C3.78016 7.90005 2.50714 9.98641 1.69897 12.2734C0.89079 14.5606 0.565762 16.9966 0.7453 19.4213C0.924838 21.846 1.60485 24.2044 2.74061 26.3411C3.87635 28.478 5.44208 30.3448 7.3347 31.8187C8.54914 32.7833 9.89101 33.5674 11.3204 34.1479C13.3246 34.9871 15.4695 35.4193 17.6355 35.4206C22.1063 35.4106 26.3907 33.5895 29.5498 30.3566C32.7088 27.1238 34.4846 22.743 34.4878 18.1745C34.491 15.8179 34.0161 13.4863 33.0928 11.327ZM17.6229 4.41573C19.568 4.41552 21.4896 4.84992 23.2529 5.68851C22.8229 5.87836 22.3707 6.01098 21.9077 6.08309C20.3839 6.30848 18.9723 7.03142 17.8836 8.14398C16.7949 9.25644 16.0873 10.699 15.8668 12.2561C15.77 13.1292 15.3812 13.9418 14.7663 14.5562C14.1513 15.1707 13.3479 15.5494 12.4913 15.629C10.9675 15.8543 9.55587 16.5773 8.46718 17.6898C7.3784 18.8023 6.67092 20.2448 6.45039 21.8019C6.37569 22.6322 6.029 23.4126 5.46638 24.0165C4.49566 21.9207 4.0596 19.6077 4.19875 17.2933C4.3379 14.9788 5.04777 12.738 6.26227 10.7792C7.47677 8.82055 9.15641 7.20759 11.1449 6.09052C13.1336 4.97342 15.3663 4.38855 17.6355 4.39027L17.6229 4.41573ZM7.32224 27.0839C7.47168 26.9439 7.62122 26.8167 7.77067 26.6639C8.87884 25.5661 9.59009 24.117 9.78842 22.5528C9.86898 21.6736 10.253 20.8524 10.8721 20.2364C11.4679 19.6028 12.2696 19.2135 13.1265 19.1418C14.6504 18.9163 16.0619 18.1935 17.1507 17.0809C18.2394 15.9684 18.9469 14.5259 19.1674 12.9689C19.2215 12.0493 19.6076 11.1829 20.2511 10.5378C20.8615 9.9165 21.6709 9.54137 22.5305 9.48134C23.9304 9.28453 25.2359 8.6486 26.2672 7.66133C27.4413 8.65677 28.436 9.85413 29.2066 11.1997C29.1593 11.265 29.1051 11.3248 29.0447 11.3778C28.4502 12.017 27.6496 12.415 26.7904 12.4979C25.2649 12.7193 23.8512 13.441 22.7617 14.5542C21.6724 15.6675 20.966 17.1121 20.7494 18.6709C20.6615 19.5471 20.2801 20.3653 19.6695 20.987C19.0588 21.6087 18.2566 21.9955 17.3988 22.0819C15.8706 22.3055 14.4537 23.0271 13.3586 24.1391C12.2636 25.2513 11.5489 26.6946 11.3204 28.2549C11.2535 28.8769 11.0443 29.4741 10.7102 29.9986C9.43222 29.2232 8.28763 28.2386 7.32224 27.0839ZM17.6229 31.9969C16.3591 31.9983 15.1013 31.8182 13.8864 31.4622C14.302 30.6706 14.5721 29.8078 14.6835 28.9167C14.7708 28.0424 15.1506 27.2258 15.7587 26.6044C16.3668 25.9829 17.1661 25.5949 18.0216 25.5057C19.5477 25.2828 20.9621 24.5609 22.0533 23.4482C23.1445 22.3356 23.8538 20.8916 24.0749 19.3327C24.1623 18.4584 24.5421 17.6416 25.1502 17.0202C25.7583 16.399 26.5575 16.0109 27.4131 15.9217C28.5614 15.769 29.6561 15.3321 30.6017 14.6489C31.1269 16.6826 31.189 18.8122 30.7836 20.8745C30.3781 22.9366 29.5158 24.8766 28.2626 26.5453C27.0097 28.2139 25.3993 29.5673 23.5549 30.5013C21.7106 31.4351 19.6814 31.925 17.6229 31.9332V31.9969Z" fill="#26AAF2"/><path d="M40.7285 28.3197V8.86792H55.6852V12.002H44.6926V16.9075H54.8525V20.0416H44.6926V25.1855H56.2183V28.3197H40.7285Z" fill="#263136"/><path d="M56.7695 20.8593C56.7695 18.3838 57.2581 16.4762 58.2352 15.1362C59.2346 13.7736 60.6226 13.0923 62.3992 13.0923C64.5311 13.0923 66.0079 13.9894 66.8296 15.7835C66.8296 15.352 66.8518 14.8864 66.8962 14.3867C66.9406 13.8644 66.985 13.5238 67.0294 13.3648H70.6604C70.616 14.364 70.5938 15.511 70.5938 16.8054V34.1792H66.8296V27.9791L66.8962 25.833H66.8629C66.019 27.6726 64.4312 28.5923 62.0993 28.5923C60.3894 28.5923 59.068 27.911 58.1353 26.5483C57.2248 25.1857 56.7695 23.2894 56.7695 20.8593ZM66.8629 20.7912C66.8629 19.2015 66.5963 17.9637 66.0634 17.078C65.5526 16.1923 64.7865 15.7494 63.7649 15.7494C61.744 15.7494 60.7336 17.4527 60.7336 20.8593C60.7336 24.2432 61.733 25.9351 63.7316 25.9351C64.7309 25.9351 65.4971 25.4923 66.0301 24.6066C66.5853 23.7209 66.8629 22.449 66.8629 20.7912Z" fill="#263136"/><path d="M76.3404 13.3647V21.745C76.3404 24.3794 77.2065 25.6966 78.9387 25.6966C79.8492 25.6966 80.582 25.2992 81.1373 24.5043C81.7146 23.6867 82.0033 22.6534 82.0033 21.4043V13.3647H85.801V24.9812C85.801 26.253 85.8344 27.3658 85.9011 28.3197H82.3031C82.1921 27.0025 82.1365 26.0146 82.1365 25.3559H82.0699C81.5592 26.4915 80.9152 27.3204 80.1379 27.8428C79.3607 28.3424 78.4391 28.5923 77.3731 28.5923C75.8185 28.5923 74.6193 28.1153 73.7755 27.1615C72.9538 26.1849 72.543 24.7541 72.543 22.8691V13.3647H76.3404Z" fill="#263136"/><path d="M87.9824 10.6735V7.84595H91.7805V10.6735H87.9824ZM87.9824 28.3197V13.3647H91.7805V28.3197H87.9824Z" fill="#263136"/><path d="M103.468 28.3198V19.9395C103.468 17.3051 102.602 15.9879 100.87 15.9879C99.9598 15.9879 99.2156 16.3966 98.6382 17.2143C98.0836 18.0092 97.8054 19.0425 97.8054 20.3143V28.3198H94.0082V16.7373C94.0082 15.9425 93.9968 15.2838 93.9749 14.7615C93.953 14.2391 93.9301 13.7736 93.9082 13.3648H97.5062C97.5281 13.5465 97.5615 14.0234 97.6053 14.7955C97.672 15.5451 97.7054 16.0674 97.7054 16.3626H97.7387C98.2494 15.2271 98.8936 14.3981 99.6711 13.8757C100.449 13.3534 101.37 13.0923 102.436 13.0923C103.99 13.0923 105.179 13.5806 106 14.5571C106.844 15.5337 107.266 16.9645 107.266 18.8494V28.3198H103.468Z" fill="#263136"/><path d="M109.215 10.6735V7.84595H113.013V10.6735H109.215ZM109.215 28.3197V13.3647H113.013V28.3197H109.215Z" fill="#263136"/><path d="M124.369 28.3197L120.972 22.9032L117.54 28.3197H113.51L118.84 20.5867L113.743 13.3647H117.84L120.972 18.2702L124.069 13.3647H128.2L123.103 20.5527L128.5 28.3197H124.369Z" fill="#263136"/></g><defs><clipPath id="svg1574451302_5826_clip0_8307_6162"><rect width="129" height="35" fill="white" transform="translate(0.199219 0.5)"/></clipPath></defs></svg>