<svg width="139" height="32" viewBox="0 0 139 32" fill="none" xmlns="http://www.w3.org/2000/svg" id="svg-447071558_19081"><g clip-path="url(#svg-447071558_19081_clip0_8307_6150)"><path d="M23.6665 14.1184C23.2398 14.5601 22.9132 15.093 22.7097 15.6792C22.5063 16.2656 22.4309 16.8908 22.4891 17.5105L22.4688 17.4897C22.5286 18.2192 22.4331 18.9532 22.1886 19.6407C21.9443 20.3282 21.557 20.9524 21.054 21.4701C20.5508 21.9877 19.944 22.3862 19.2758 22.6375C18.6075 22.8889 17.8941 22.9874 17.1851 22.9258L17.2054 22.9466C16.3573 22.8655 15.5056 23.0553 14.7662 23.4903C14.0269 23.9254 13.436 24.5846 13.0741 25.3779C12.7122 26.1712 12.5967 27.0598 12.7438 27.923C12.8909 28.7862 13.2931 29.5817 13.8956 30.201C14.4982 30.8204 15.2716 31.2334 16.1107 31.3839C16.9499 31.5345 17.8136 31.415 18.5843 31.0419C19.3549 30.6688 19.9951 30.0603 20.4173 29.2993C20.8395 28.5381 21.0233 27.6617 20.9436 26.7892L20.965 26.81C20.9051 26.0807 21.0006 25.3466 21.2451 24.6589C21.4894 23.9715 21.8767 23.3472 22.3798 22.8296C22.8829 22.312 23.4897 21.9135 24.1579 21.6622C24.8262 21.4108 25.5396 21.3124 26.2486 21.3739L26.2272 21.3531C26.92 21.4172 27.6173 21.3003 28.2545 21.0132C28.8916 20.7264 29.4481 20.2784 29.8722 19.7114C30.2964 19.1442 30.5747 18.476 30.6808 17.7688C30.7872 17.0617 30.7184 16.3383 30.4806 15.6657C30.2429 14.9932 29.8439 14.3933 29.3209 13.9216C28.7978 13.4499 28.1676 13.1217 27.4883 12.9674C26.8091 12.8132 26.1029 12.8377 25.4354 13.0389C24.768 13.2401 24.1607 13.6114 23.6698 14.1184H23.6665Z" fill="#E31587"/><path d="M15.362 20.216L15.3406 20.1952C15.943 20.2576 16.5517 20.1814 17.1222 19.9723C17.6926 19.7632 18.2109 19.4263 18.6393 18.9859C19.0676 18.5454 19.3956 18.0126 19.5993 17.4256C19.803 16.8389 19.8774 16.213 19.8172 15.5929L19.8386 15.6137C19.7786 14.8842 19.8743 14.1503 20.1185 13.4626C20.363 12.7752 20.7503 12.1509 21.2534 11.6333C21.7565 11.1157 22.3633 10.7172 23.0315 10.4659C23.6997 10.2144 24.4132 10.1161 25.1222 10.1776L25.1008 10.1568C25.949 10.2388 26.801 10.0495 27.5407 9.61488C28.2806 9.18034 28.8719 8.52155 29.2344 7.72834C29.5968 6.93521 29.7127 6.04637 29.5662 5.18299C29.4195 4.31963 29.0177 3.5238 28.4153 2.90407C27.813 2.28433 27.0394 1.87084 26.2003 1.72004C25.3611 1.56922 24.4972 1.68839 23.7264 2.06133C22.9554 2.43425 22.3151 3.04277 21.8927 3.80388C21.4702 4.56498 21.2863 5.44163 21.366 6.31422L21.3458 6.29222C21.4057 7.02165 21.3103 7.75589 21.066 8.44346C20.8218 9.13104 20.4345 9.7555 19.9314 10.2732C19.4283 10.7908 18.8212 11.1892 18.153 11.4405C17.4846 11.6918 16.7712 11.7901 16.0621 11.7283L16.0824 11.7503C15.4797 11.6879 14.8712 11.7641 14.3007 11.9732C13.7303 12.1822 13.212 12.5192 12.7836 12.9595C12.3551 13.4 12.0273 13.9329 11.8236 14.5198C11.6199 15.1066 11.5455 15.7325 11.6058 16.3526L11.5855 16.3317C11.6452 17.0612 11.5494 17.7951 11.305 18.4825C11.0605 19.1698 10.6733 19.7943 10.1702 20.3117C9.66711 20.8293 9.0604 21.2277 8.39227 21.4793C7.72414 21.7307 7.01073 21.8292 6.3018 21.7678L6.32206 21.7887C5.47392 21.7066 4.62187 21.8959 3.88209 22.3306C3.14233 22.7651 2.55087 23.4239 2.18842 24.2171C1.82594 25.0103 1.71009 25.8992 1.85668 26.7625C2.00328 27.6259 2.40516 28.4217 3.00752 29.0413C3.60988 29.6613 4.38339 30.0747 5.22255 30.2254C6.06171 30.3761 6.92566 30.2571 7.69657 29.8842C8.46751 29.5113 9.10776 28.9028 9.53019 28.1416C9.9527 27.3805 10.1365 26.5039 10.0569 25.6312L10.0783 25.6521C10.0183 24.9226 10.114 24.1887 10.3585 23.501C10.6027 22.8136 10.99 22.1893 11.4931 21.6716C11.9963 21.1541 12.6031 20.7556 13.2712 20.5043C13.9394 20.2529 14.6529 20.1545 15.362 20.216Z" fill="#FD49AC"/><path d="M7.81925 17.8921C8.24586 17.4507 8.57248 16.9177 8.77584 16.3314C8.97916 15.745 9.05426 15.1196 8.99548 14.5L9.01687 14.5209C8.95705 13.7913 9.05265 13.057 9.29715 12.3693C9.54165 11.6816 9.92911 11.0572 10.4325 10.5395C10.9359 10.0219 11.5429 9.62355 12.2114 9.37224C12.8799 9.12102 13.5937 9.02283 14.3028 9.08479L14.2814 9.06394C15.1292 9.14575 15.981 8.9564 16.7205 8.52179C17.4599 8.08725 18.051 7.42863 18.4132 6.63574C18.7755 5.84286 18.8912 4.95427 18.7447 4.09124C18.5981 3.22818 18.1962 2.43267 17.5941 1.81315C16.9921 1.19364 16.2188 0.780299 15.3799 0.629482C14.5411 0.478673 13.6774 0.597741 12.9069 0.970433C12.1361 1.34314 11.496 1.95133 11.0736 2.71208C10.6512 3.47284 10.4672 4.34912 10.5466 5.22143L10.5263 5.20058C10.5862 5.92997 10.4906 6.66412 10.2462 7.35161C10.0018 8.03911 9.61458 8.66349 9.11158 9.18107C8.60841 9.69874 8.0016 10.0971 7.33338 10.3484C6.66516 10.5999 5.95168 10.6983 5.24271 10.6366L5.26297 10.6575C4.57022 10.5936 3.873 10.7107 3.23593 10.9978C2.59885 11.2849 2.04251 11.7328 1.61848 12.3001C1.19444 12.8671 0.916435 13.5353 0.810195 14.2425C0.703974 14.9498 0.772965 15.6731 1.01077 16.3455C1.24859 17.0181 1.64754 17.6178 2.17065 18.0894C2.69375 18.5611 3.3241 18.8891 4.00329 19.0434C4.68245 19.1976 5.38848 19.1729 6.05593 18.9718C6.72339 18.7704 7.33066 18.3992 7.8215 17.8921H7.81925Z" fill="#FF83C7"/><path d="M36.7503 23.6893C36.7503 23.6893 38.8572 20.7157 43.0709 14.7685C44.5881 12.5628 45.6148 11.0357 46.1507 10.1873L47.6845 7.68033L42.539 7.87117C41.9535 7.89665 41.4794 7.9433 41.1166 8.01122C40.7538 8.07053 40.4693 8.19362 40.2632 8.38024C39.9086 8.69416 39.6818 9.42376 39.5829 10.569C39.5829 10.7387 39.389 10.8702 39.0015 10.9635C38.9025 10.989 38.7748 11.0017 38.6181 11.0017C38.4614 11.0017 38.3377 10.9254 38.247 10.7727C38.1645 10.62 38.0862 10.4121 38.012 10.1491C37.946 9.87765 37.8924 9.59764 37.8512 9.30919C37.7687 8.7323 37.7275 8.23597 37.7275 7.8203C37.7275 7.3961 37.744 7.061 37.777 6.81499C37.81 6.56046 37.8718 6.36532 37.9626 6.22957C38.1192 5.992 38.4532 5.87329 38.9644 5.87329H50.2695C50.5747 5.87329 50.8922 6.06835 51.222 6.45863C51.5436 6.84038 51.6549 7.14157 51.556 7.36219L40.5229 23.5238L46.93 23.2694C48.0514 23.2184 48.8142 22.9469 49.2182 22.4549C49.5646 22.0307 49.7913 21.1993 49.8985 19.9606C49.9068 19.8758 49.9934 19.7952 50.1583 19.7188C50.3315 19.6425 50.5252 19.6043 50.7396 19.6043C50.9622 19.6043 51.1148 19.6849 51.1972 19.8461C51.288 20.0073 51.3663 20.2406 51.4322 20.546C51.5064 20.8514 51.5684 21.1696 51.6178 21.5005C51.7168 22.1622 51.7662 22.7348 51.7662 23.2184C51.7662 23.6936 51.7044 24.071 51.5807 24.351C51.457 24.631 51.2714 24.8474 51.0241 25.0001C50.6118 25.2545 49.8903 25.3818 48.8595 25.3818H37.9378C37.608 25.3818 37.2946 25.1442 36.9977 24.6692C36.7009 24.2111 36.6184 23.8844 36.7503 23.6893Z" fill="#382630"/><path d="M52.7363 18.5353C52.7363 17.5088 52.8394 16.5968 53.0456 15.7993C53.2517 15.0018 53.5279 14.2892 53.8743 13.6614C54.2288 13.0251 54.6411 12.4694 55.1111 11.9943C55.5894 11.5193 56.1007 11.1248 56.6449 10.8108C57.7169 10.1831 58.7723 9.86914 59.8113 9.86914C60.8503 9.86914 61.6832 10.0601 62.3098 10.4418C62.9366 10.8151 63.4477 11.3156 63.8436 11.9435C64.5775 13.1397 64.9444 14.7304 64.9444 16.7156C64.9444 17.4537 64.6435 17.8312 64.0415 17.8482L55.408 18.0391C55.4574 19.88 55.9193 21.2417 56.7933 22.124C57.5354 22.8706 58.4961 23.2439 59.6752 23.2439C61.4317 23.2439 62.8582 22.8664 63.9549 22.1113C64.0291 22.1113 64.1198 22.1749 64.227 22.3022C64.4332 22.5567 64.5362 22.7773 64.5362 22.9639C64.5362 23.3711 64.0415 23.8929 63.052 24.5292C61.914 25.2588 60.5864 25.6236 59.0692 25.6236C57.0902 25.6236 55.5358 24.9746 54.4061 23.6765C53.2929 22.404 52.7363 20.6903 52.7363 18.5353ZM55.4822 16.3974C57.857 16.2787 60.0299 16.1217 62.0006 15.9266C62.0913 13.2288 61.1843 11.8798 59.2795 11.8798C58.2157 11.8798 57.3457 12.304 56.6697 13.1524C56.0512 13.9329 55.6554 15.0146 55.4822 16.3974Z" fill="#382630"/><path d="M72.853 25.4454C72.6881 25.403 72.4242 25.3818 72.0615 25.3818H68.1157C67.3241 25.3818 66.817 25.2376 66.5944 24.9491C66.5037 24.8388 66.4583 24.7116 66.4583 24.5674C66.4583 24.2111 66.5243 23.948 66.6562 23.7784C66.8541 23.8463 67.0768 23.8802 67.3241 23.8802C67.5798 23.8802 67.7695 23.7741 67.8931 23.562C68.025 23.3499 68.0869 22.9555 68.0787 22.3786V14.0559C68.0787 13.2585 67.9344 12.7621 67.6457 12.567C67.5303 12.4907 67.3777 12.4524 67.1881 12.4524C66.9984 12.4524 66.8459 12.4821 66.7304 12.5415C66.6232 12.6009 66.5326 12.6434 66.4583 12.6688C66.3923 12.6942 66.3346 12.6942 66.2852 12.6688C66.2357 12.6348 66.1862 12.5882 66.1367 12.5288C66.013 12.393 65.9512 12.2531 65.9512 12.1089C65.9512 11.9562 66.0007 11.7992 66.0996 11.638C66.2068 11.4683 66.3759 11.2775 66.6068 11.0654C66.8376 10.8448 67.1015 10.6454 67.3983 10.4672C68.0663 10.0685 68.7342 9.86914 69.4021 9.86914C70.169 9.86914 70.6225 10.3909 70.7627 11.4344C70.8039 11.7398 70.8287 12.0537 70.8369 12.3761C72.0655 11.3156 73.4014 10.5606 74.8444 10.1109C75.3639 9.94971 75.8875 9.86914 76.4153 9.86914C76.9512 9.86914 77.4584 9.94127 77.9366 10.0855C78.4231 10.2297 78.8437 10.463 79.1983 10.7854C79.9487 11.4641 80.3238 12.5246 80.3238 13.9668V22.5949C80.3486 23.2566 80.5877 23.6639 81.0413 23.8166C81.1648 23.8589 81.3176 23.8971 81.4985 23.9311C81.6802 23.965 81.841 24.0074 81.9809 24.0584C82.1297 24.1007 82.2454 24.1517 82.3274 24.2111C82.4681 24.3213 82.5381 24.4995 82.5381 24.7455C82.5381 25.0424 82.4722 25.2758 82.3403 25.4454C82.1747 25.403 81.911 25.3818 81.5484 25.3818H77.6027C76.8111 25.3818 76.3039 25.2376 76.0813 24.9491C75.9906 24.8388 75.9452 24.7116 75.9452 24.5674C75.9452 24.2111 76.0113 23.948 76.1432 23.7784C76.3411 23.8463 76.5225 23.8802 76.6874 23.8802C76.8605 23.8802 77.0049 23.8589 77.1203 23.8166C77.2358 23.7656 77.3265 23.6851 77.3924 23.5748C77.5078 23.3711 77.5656 22.9724 77.5656 22.3786V14.8704C77.5656 13.4281 77.1492 12.6222 76.3163 12.4524C76.0607 12.4016 75.7391 12.3761 75.3516 12.3761C74.9722 12.3761 74.5517 12.4355 74.0899 12.5543C73.6282 12.6731 73.1953 12.8258 72.7912 13.0124C72.0161 13.3687 71.3646 13.8183 70.8369 14.3613V22.5949C70.8616 23.2566 71.0966 23.6639 71.5419 23.8166C71.6738 23.8589 71.8264 23.8971 71.9996 23.9311C72.181 23.965 72.3459 24.0074 72.4943 24.0584C72.6428 24.1007 72.7582 24.1517 72.8407 24.2111C72.9808 24.3213 73.051 24.4995 73.051 24.7455C73.051 25.0424 72.9849 25.2758 72.853 25.4454Z" fill="#382630"/><path d="M85.7857 7.50205C85.5051 7.50205 85.2454 7.45961 85.0058 7.37482C84.7751 7.28143 84.5733 7.14999 84.4004 6.98033C84.037 6.62397 83.8561 6.1446 83.8561 5.5423C83.8561 4.96538 84.0699 4.47757 84.4993 4.07883C84.9117 3.68009 85.4062 3.48071 85.9835 3.48071C86.5608 3.48071 87.0223 3.65888 87.3688 4.0152C87.7153 4.37152 87.8882 4.8551 87.8882 5.46593C87.8882 6.04285 87.6824 6.53066 87.2699 6.92937C86.8655 7.31113 86.371 7.50205 85.7857 7.50205ZM85.0307 25.3817C83.7612 25.3817 83.126 25.0847 83.126 24.4909C83.126 24.1855 83.192 23.9479 83.3238 23.7783C83.5216 23.8462 83.7033 23.8801 83.8681 23.8801C84.6352 23.8801 85.0106 23.3795 84.9938 22.3784V13.8522C84.9938 13.2584 84.9117 12.8468 84.7461 12.6178C84.5901 12.3803 84.3055 12.2615 83.8931 12.2615C83.5875 12.2615 83.3118 12.2996 83.0641 12.376C82.9162 12.3929 82.8084 12.2742 82.7425 12.0197C82.6846 11.7906 82.7176 11.5913 82.8414 11.4215C82.9652 11.2434 83.155 11.061 83.4106 10.8743C83.6744 10.6792 83.963 10.5095 84.2766 10.3654C84.9528 10.0345 85.5172 9.86903 85.9706 9.86903C86.4241 9.86903 86.7586 9.93694 86.9732 10.0726C87.1951 10.2084 87.3648 10.3908 87.4798 10.6199C87.6615 10.9931 87.7523 11.5955 87.7523 12.4269V22.5948C87.7765 23.265 88.012 23.6722 88.4575 23.8165C88.5805 23.8588 88.7332 23.897 88.9149 23.931C89.0958 23.9649 89.2566 24.0073 89.3973 24.0583C89.5453 24.1006 89.6611 24.1516 89.7439 24.211C89.8838 24.3212 89.9537 24.4994 89.9537 24.7454C89.9537 25.0508 89.8918 25.2841 89.768 25.4453C89.5951 25.4029 89.3314 25.3817 88.9768 25.3817H85.0307Z" fill="#382630"/><path d="M94.5333 16.7028L94.5212 20.0496C94.5212 21.4495 94.5912 22.2936 94.7319 22.5821C94.8718 22.8621 95.0366 23.0317 95.2264 23.0911C95.4161 23.142 95.6589 23.1675 95.9564 23.1675C96.2531 23.1675 96.5208 23.1462 96.7604 23.1039C97.0073 23.0529 97.238 22.9893 97.4527 22.9129C97.6674 22.8366 97.8732 22.7517 98.071 22.6584L98.6772 22.3912C98.8171 22.3403 98.9739 22.4887 99.1475 22.8366C99.1966 22.9299 99.2215 23.0402 99.2215 23.1675C99.2215 23.2863 99.1717 23.4432 99.0728 23.6383C98.9739 23.8335 98.7801 24.0583 98.4915 24.3127C98.2117 24.5588 97.8812 24.7794 97.5025 24.9745C96.6776 25.4072 95.9355 25.6235 95.2754 25.6235C94.6242 25.6235 94.0927 25.5853 93.6802 25.509C93.2678 25.4326 92.9172 25.2799 92.6286 25.0509C92.0352 24.5758 91.7385 23.7062 91.7385 22.4421V12.427H90.514C90.2583 12.427 90.0726 12.3421 89.9568 12.1724C89.7591 11.9095 89.6602 11.6888 89.6602 11.5107C89.6602 11.2138 89.7301 11.0483 89.8708 11.0144C91.1814 10.7853 92.1092 9.78419 92.6535 8.01115C92.8103 7.4766 92.9341 6.84461 93.025 6.11501C93.4205 6.0471 93.7172 6.01318 93.915 6.01318C94.1216 6.01318 94.2985 6.11923 94.4473 6.33133C94.5952 6.54343 94.666 6.78944 94.6571 7.06937C94.6571 7.34938 94.6531 7.61235 94.6451 7.85836C94.637 8.10446 94.6282 8.37164 94.6201 8.66009L94.5711 10.4417H98.8501C98.9578 10.6369 99.0109 10.8447 99.0109 11.0653V11.4598C99.0109 11.8161 98.8259 12.1088 98.4545 12.3379C98.0838 12.5584 97.6714 12.6688 97.2179 12.6688C96.7725 12.6688 96.4509 12.6645 96.2531 12.656C96.0633 12.6391 95.8776 12.6221 95.6959 12.6051L95.1524 12.5287C94.9626 12.5118 94.76 12.4948 94.5462 12.4778V12.6178L94.5333 16.7028Z" fill="#382630"/><path d="M106.475 25.4453C106.311 25.4029 106.047 25.3817 105.684 25.3817H101.738C100.947 25.3817 100.44 25.2374 100.217 24.949C100.126 24.8387 100.081 24.7115 100.081 24.5672C100.081 24.211 100.147 23.9479 100.279 23.7782C100.477 23.8462 100.703 23.8801 100.959 23.8801C101.215 23.8801 101.404 23.774 101.528 23.5619C101.651 23.3498 101.709 22.9553 101.701 22.3784V6.61122C101.701 6.02588 101.643 5.64834 101.528 5.47865C101.355 5.20717 101.05 5.07142 100.612 5.07142H100.366C100.291 5.07142 100.205 5.08415 100.106 5.1096C100.015 5.12657 99.9363 5.11808 99.8704 5.08415C99.8044 5.04173 99.7466 4.98658 99.6975 4.91872C99.5238 4.65571 99.7224 4.29939 100.291 3.84975C101.124 3.1965 101.973 2.86987 102.839 2.86987C103.78 2.86987 104.307 3.39163 104.422 4.43514C104.456 4.74904 104.472 5.07991 104.472 5.42774V12.3632C105.717 11.2858 107.049 10.535 108.467 10.1108C108.986 9.94959 109.51 9.86902 110.038 9.86902C110.573 9.86902 111.081 9.94115 111.559 10.0853C112.046 10.2296 112.462 10.4629 112.809 10.7852C113.567 11.4809 113.946 12.5414 113.946 13.9667V22.5057C113.946 23.2099 114.177 23.6425 114.639 23.8037C114.771 23.8546 114.928 23.897 115.109 23.9309C115.291 23.9649 115.451 24.0073 115.591 24.0583C115.74 24.1006 115.855 24.1516 115.938 24.211C116.078 24.3212 116.148 24.4994 116.148 24.7454C116.148 25.0508 116.087 25.2841 115.963 25.4453C115.789 25.4029 115.525 25.3817 115.171 25.3817H111.225C110.434 25.3817 109.926 25.2374 109.703 24.949C109.613 24.8387 109.568 24.7115 109.568 24.5672C109.568 24.2024 109.63 23.9395 109.753 23.7782C109.959 23.8462 110.182 23.8801 110.421 23.8801C110.66 23.8801 110.842 23.791 110.966 23.6128C111.098 23.4346 111.172 23.108 111.188 22.633V14.8703C111.188 13.428 110.772 12.6221 109.939 12.4523C109.683 12.4014 109.362 12.376 108.974 12.376C108.595 12.376 108.174 12.4354 107.713 12.5541C107.259 12.6729 106.83 12.8256 106.426 13.0123C105.626 13.3856 104.975 13.8309 104.472 14.3484V22.5057C104.472 23.2099 104.703 23.6425 105.165 23.8037C105.297 23.8546 105.453 23.897 105.634 23.9309C105.816 23.9649 105.977 24.0073 106.117 24.0583C106.266 24.1006 106.38 24.1516 106.463 24.211C106.603 24.3212 106.673 24.4994 106.673 24.7454C106.673 25.0423 106.607 25.2757 106.475 25.4453Z" fill="#382630"/><path d="M119.22 7.50205C118.94 7.50205 118.68 7.45961 118.441 7.37482C118.211 7.28143 118.008 7.14999 117.835 6.98033C117.473 6.62397 117.291 6.1446 117.291 5.5423C117.291 4.96538 117.505 4.47757 117.934 4.07883C118.346 3.68009 118.841 3.48071 119.418 3.48071C119.996 3.48071 120.457 3.65888 120.804 4.0152C121.15 4.37152 121.323 4.8551 121.323 5.46593C121.323 6.04285 121.117 6.53066 120.705 6.92937C120.301 7.31113 119.806 7.50205 119.22 7.50205ZM118.466 25.3817C117.196 25.3817 116.561 25.0847 116.561 24.4909C116.561 24.1855 116.627 23.9479 116.759 23.7783C116.957 23.8462 117.138 23.8801 117.303 23.8801C118.07 23.8801 118.445 23.3795 118.429 22.3784V13.8522C118.429 13.2584 118.346 12.8468 118.182 12.6178C118.025 12.3803 117.74 12.2615 117.328 12.2615C117.023 12.2615 116.747 12.2996 116.5 12.376C116.351 12.3929 116.244 12.2742 116.178 12.0197C116.12 11.7906 116.153 11.5913 116.277 11.4215C116.4 11.2434 116.59 11.061 116.845 10.8743C117.109 10.6792 117.398 10.5095 117.711 10.3654C118.387 10.0345 118.953 9.86903 119.406 9.86903C119.86 9.86903 120.193 9.93694 120.408 10.0726C120.631 10.2084 120.8 10.3908 120.915 10.6199C121.096 10.9931 121.187 11.5955 121.187 12.4269V22.5948C121.212 23.265 121.447 23.6722 121.892 23.8165C122.016 23.8588 122.168 23.897 122.35 23.931C122.531 23.9649 122.692 24.0073 122.832 24.0583C122.981 24.1006 123.096 24.1516 123.179 24.211C123.319 24.3212 123.388 24.4994 123.388 24.7454C123.388 25.0508 123.327 25.2841 123.204 25.4453C123.03 25.4029 122.766 25.3817 122.412 25.3817H118.466Z" fill="#382630"/><path d="M132.461 23.7656C131.257 25.0043 129.802 25.6236 128.095 25.6236C126.776 25.6236 125.72 25.2333 124.928 24.4529C124.128 23.6639 123.729 22.6415 123.729 21.3859C123.729 19.8249 124.405 18.6541 125.757 17.8736C126.978 17.161 128.697 16.8046 130.915 16.8046H132.461C132.469 16.4823 132.473 16.1684 132.473 15.8629V14.9085C132.473 13.7717 132.312 12.9699 131.991 12.5034C131.628 11.9774 131.01 11.7144 130.136 11.7144C128.132 11.7144 127.101 12.4524 127.043 13.9287C127.035 14.1577 127.039 14.3486 127.056 14.5013C126.891 14.637 126.611 14.7049 126.215 14.7049C125.827 14.7049 125.542 14.6583 125.361 14.565C125.188 14.4716 125.036 14.3444 124.904 14.1831C124.623 13.8523 124.483 13.4324 124.483 12.9233C124.483 12.4058 124.627 11.9562 124.916 11.5744C125.213 11.1842 125.613 10.866 126.116 10.62C127.097 10.1195 128.256 9.86914 129.591 9.86914C130.927 9.86914 131.929 10.0049 132.597 10.2764C133.273 10.5393 133.809 10.8914 134.205 11.3326C134.906 12.1131 135.257 13.1609 135.257 14.4759L135.133 20.5843C135.133 21.6956 135.183 22.3997 135.281 22.6967C135.388 22.9936 135.512 23.193 135.652 23.2948C135.801 23.3966 135.978 23.4475 136.184 23.4475C136.398 23.4475 136.572 23.4136 136.704 23.3457L137.05 23.1803C137.165 23.1379 137.264 23.1887 137.347 23.333C137.438 23.4687 137.483 23.5917 137.483 23.702C137.483 23.8038 137.438 23.9396 137.347 24.1092C137.264 24.2789 137.103 24.4613 136.865 24.6564C136.634 24.8431 136.369 25.0085 136.073 25.1528C134.432 25.9502 133.315 25.7636 132.721 24.5928C132.597 24.3638 132.511 24.0881 132.461 23.7656ZM132.424 22.0985C132.424 20.8769 132.432 19.6637 132.449 18.459C130.733 18.5269 129.566 18.6414 128.948 18.8026C128.338 18.9553 127.897 19.1038 127.625 19.248C127.353 19.3922 127.138 19.5619 126.982 19.757C126.726 20.0794 126.598 20.5672 126.598 21.2205C126.598 21.8653 126.821 22.3828 127.266 22.7731C127.712 23.1548 128.351 23.3457 129.183 23.3457C130.362 23.3457 131.442 22.93 132.424 22.0985Z" fill="#382630"/></g><defs><clipPath id="svg-447071558_19081_clip0_8307_6150"><rect width="138" height="32" fill="white" transform="translate(0.199219)"/></clipPath></defs></svg>